<svg width="60" height="45" viewBox="0 0 60 45" fill="none" xmlns="http://www.w3.org/2000/svg">
<path d="M0.814453 38.0649C0.814453 36.2639 3.70068 34.6229 8.43281 33.3899V35.1758C8.43281 37.4813 10.2192 37.8145 11.9731 38.3677C21.1861 41.2745 37.7107 41.0435 49.1826 38.3677C50.2568 38.1173 51.5159 37.861 51.5159 36.3377V33.3902C56.2478 34.6229 59.1334 36.2642 59.1334 38.0652C59.1334 41.8954 46.0785 45.0001 29.9744 45.0001C13.8697 44.9995 0.814453 41.8951 0.814453 38.0649Z" fill="url(#paint0_linear_3403_115)"/>
<path fill-rule="evenodd" clip-rule="evenodd" d="M42.824 23.9351L32.1237 18.3312L31.9502 18.2395L29.0586 40.4539C34.21 40.4784 39.5709 40.089 44.4263 39.3242L42.824 23.9351Z" fill="url(#paint1_linear_3403_115)"/>
<path fill-rule="evenodd" clip-rule="evenodd" d="M31.9558 17.8368L31.9322 18.0353L23.167 13.37C22.5215 13.029 20.3489 12.8772 20.3489 15.1775V18.2116L12.0389 13.8254C10.939 13.2942 8.43164 13.6736 8.43164 16.1263V33.39C13.7643 32.0008 21.4404 31.129 29.9732 31.129C30.0689 31.129 30.1641 31.1301 30.2598 31.1301L31.9088 18.3575L31.9558 17.8368Z" fill="#8A63CD"/>
<path d="M49.732 27.4405L42.8081 23.7792L42.8047 23.7458L42.8249 23.9347L43.6584 31.9392C46.619 32.314 49.2762 32.8059 51.5186 33.3901V30.2612C51.5186 28.2528 49.9168 27.5384 49.732 27.4405Z" fill="url(#paint2_linear_3403_115)"/>
<path d="M42.8246 23.9348L42.8044 23.746L40.3301 0.818335C40.2908 0.402474 39.8888 0 39.5137 0H34.7938C34.4411 0 34.0321 0.393075 33.9813 0.782446L31.9591 17.8367L31.9121 18.3577V18.3591L42.8303 23.9881L42.8246 23.9348Z" fill="url(#paint3_linear_3403_115)"/>
<path fill-rule="evenodd" clip-rule="evenodd" d="M43.6562 31.9368L44.4222 39.2915C46.0773 39.0261 47.6739 38.7167 49.1829 38.3647C50.2571 38.1143 51.5162 37.8585 51.5162 36.3346V33.3877C49.274 32.8035 46.6168 32.311 43.6562 31.9368Z" fill="url(#paint4_linear_3403_115)"/>
<path d="M30.2598 31.1315C30.1641 31.1309 30.0689 31.1304 29.9732 31.1304C21.4404 31.1304 13.7643 32.0023 8.43164 33.3908V35.177C8.43164 37.4825 10.218 37.8158 11.9719 38.3689C16.4235 39.7732 22.5827 40.4445 29.0542 40.4622" fill="url(#paint5_linear_3403_115)"/>
<defs>
<linearGradient id="paint0_linear_3403_115" x1="0.814396" y1="39.1947" x2="59.1336" y2="39.1947" gradientUnits="userSpaceOnUse">
<stop stop-color="#48DBD7"/>
<stop offset="1" stop-color="#01F4A0"/>
</linearGradient>
<linearGradient id="paint1_linear_3403_115" x1="23.4863" y1="27.4928" x2="40.9544" y2="32.1083" gradientUnits="userSpaceOnUse">
<stop stop-color="#2B42C9"/>
<stop offset="0.1908" stop-color="#2947CA"/>
<stop offset="0.4141" stop-color="#2255CE"/>
<stop offset="0.6537" stop-color="#176DD5"/>
<stop offset="0.9031" stop-color="#078DDE"/>
<stop offset="1" stop-color="#009CE2"/>
</linearGradient>
<linearGradient id="paint2_linear_3403_115" x1="31.1107" y1="28.5678" x2="51.8272" y2="28.5678" gradientUnits="userSpaceOnUse">
<stop stop-color="#8C63CF"/>
<stop offset="1" stop-color="#3847D3"/>
</linearGradient>
<linearGradient id="paint3_linear_3403_115" x1="30.6525" y1="11.994" x2="49.3475" y2="11.994" gradientUnits="userSpaceOnUse">
<stop offset="0.0456" stop-color="#8C63CF"/>
<stop offset="1" stop-color="#3847D3"/>
</linearGradient>
<linearGradient id="paint4_linear_3403_115" x1="43.6564" y1="35.6141" x2="51.5165" y2="35.6141" gradientUnits="userSpaceOnUse">
<stop stop-color="#059AE5"/>
<stop offset="1" stop-color="#01ACE7"/>
</linearGradient>
<linearGradient id="paint5_linear_3403_115" x1="8.43164" y1="35.7964" x2="30.2597" y2="35.7964" gradientUnits="userSpaceOnUse">
<stop stop-color="#1C37D1"/>
<stop offset="1" stop-color="#0E70DD"/>
</linearGradient>
</defs>
</svg>
